<svg height="512pt" viewBox="-69 0 512 512.002" width="512pt" xmlns="http://www.w3.org/2000/svg"><path d="m359.53125 457.714844h-127.34375c-2.804688-3.917969-7.386719-6.484375-12.566406-6.484375h-7.78125v-59.542969h44.664062c4.128906 0 7.480469-3.347656 7.480469-7.480469 0-4.128906-3.351563-7.480469-7.480469-7.480469h-214.046875c-7.398437 0-13.421875-6.019531-13.421875-13.421874v-334.921876c0-7.402343 6.023438-13.421874 13.421875-13.421874h291.449219c7.398438 0 13.421875 6.019531 13.421875 13.421874v334.921876c0 7.402343-6.023437 13.421874-13.421875 13.421874h-42.992188c-4.132812 0-7.480468 3.351563-7.480468 7.480469 0 4.132813 3.347656 7.480469 7.480468 7.480469h42.992188c15.648438 0 28.382812-12.730469 28.382812-28.382812v-334.921876c0-15.652343-12.734374-28.382812-28.382812-28.382812h-291.449219c-15.648437 0-28.382812 12.730469-28.382812 28.382812v334.921876c0 15.652343 12.734375 28.382812 28.386719 28.382812h120.691406v59.542969h-7.78125c-8.527344 0-15.460938 6.933593-15.460938 15.460937v23.863282h-124.449218c-.273438 0-.5-.226563-.5-.5v-16.878907c0-.273437.226562-.496093.5-.496093h97.417968c4.128906 0 7.480469-3.351563 7.480469-7.480469 0-4.132813-3.351563-7.480469-7.480469-7.480469h-97.417968c-8.523438 0-15.460938 6.933594-15.460938 15.460938v16.875c0 8.523437 6.9375 15.460937 15.460938 15.460937h127.34375c2.804687 3.917969 7.386718 6.488281 12.5625 6.488281h64.257812c5.175781 0 9.757812-2.570312 12.566406-6.488281h127.339844c8.527344 0 15.460938-6.9375 15.460938-15.460937v-16.875c0-8.527344-6.9375-15.464844-15.460938-15.464844zm-181.417969-66.027344h18.765625v59.542969h-18.765625zm-22.925781 105.316406c-.0625-.472656-.167969-.925781-.316406-1.363281v-28.953125c0-.273438.222656-.496094.496094-.496094h13.769531c.484375.097656.984375.148438 1.496093.148438.511719 0 1.011719-.050782 1.492188-.148438h30.742188c.484374.097656.984374.148438 1.492187.148438.511719 0 1.011719-.050782 1.496094-.148438h13.769531c.015625 0 .03125.007813.050781.007813.082031.601562.230469 1.183593.445313 1.730469v27.371093c-.214844.546875-.363282 1.125-.445313 1.726563-.019531.003906-.035156.011718-.050781.011718h-64.257812c-.0625 0-.121094-.015624-.179688-.035156zm204.84375-6.949218c0 .273437-.226562.496093-.5.496093h-124.449219v-17.871093h124.449219c.273438 0 .5.222656.5.496093zm0 0"/><path d="m70.9375 64.339844h95.757812c4.132813 0 7.480469-3.347656 7.480469-7.480469 0-4.128906-3.347656-7.480469-7.480469-7.480469h-95.757812c-16.144531 0-29.28125 13.136719-29.28125 29.28125v2.996094c0 16.144531 13.136719 29.277344 29.28125 29.277344h95.757812c16.144532 0 29.28125-13.132813 29.28125-29.277344 0-4.132812-3.347656-7.480469-7.480468-7.480469-4.132813 0-7.480469 3.347657-7.480469 7.480469 0 7.894531-6.421875 14.316406-14.316406 14.316406h-95.761719c-7.894531 0-14.316406-6.421875-14.316406-14.316406v-2.996094c-.003906-7.898437 6.421875-14.320312 14.316406-14.320312zm0 0"/><path d="m41.65625 155.578125c0 16.144531 13.136719 29.277344 29.28125 29.277344h95.757812c16.144532 0 29.28125-13.132813 29.28125-29.277344v-2.996094c0-16.144531-13.132812-29.277343-29.28125-29.277343h-95.757812c-16.144531 0-29.28125 13.132812-29.28125 29.277343zm14.960938-2.996094c0-7.894531 6.425781-14.316406 14.320312-14.316406h95.757812c7.898438 0 14.320313 6.421875 14.320313 14.316406v2.996094c0 7.894531-6.421875 14.316406-14.320313 14.316406h-95.757812c-7.894531 0-14.320312-6.421875-14.320312-14.316406zm0 0"/><path d="m41.65625 228.75c0 16.144531 13.136719 29.28125 29.28125 29.28125h95.757812c16.144532 0 29.28125-13.136719 29.28125-29.28125v-2.996094c0-16.144531-13.132812-29.277344-29.28125-29.277344h-95.757812c-16.144531 0-29.28125 13.132813-29.28125 29.277344zm14.960938-2.996094c0-7.894531 6.425781-14.316406 14.320312-14.316406h95.757812c7.898438 0 14.320313 6.421875 14.320313 14.316406v2.996094c0 7.894531-6.421875 14.320312-14.320313 14.320312h-95.757812c-7.894531 0-14.320312-6.425781-14.320312-14.320312zm0 0"/><path d="m237.46875 49.378906c-16.972656 0-30.777344 13.804688-30.777344 30.777344s13.804688 30.777344 30.777344 30.777344c16.96875 0 30.773438-13.808594 30.773438-30.777344s-13.804688-30.777344-30.773438-30.777344zm0 46.59375c-8.722656 0-15.816406-7.097656-15.816406-15.816406 0-8.722656 7.09375-15.816406 15.816406-15.816406 8.71875 0 15.8125 7.09375 15.8125 15.816406 0 8.71875-7.09375 15.816406-15.8125 15.816406zm0 0"/><path d="m237.46875 122.925781c-16.972656 0-30.777344 13.808594-30.777344 30.777344 0 16.972656 13.804688 30.777344 30.777344 30.777344 16.96875 0 30.773438-13.804688 30.773438-30.777344 0-16.96875-13.804688-30.777344-30.773438-30.777344zm0 46.59375c-8.722656 0-15.816406-7.09375-15.816406-15.816406 0-8.71875 7.09375-15.816406 15.816406-15.816406 8.71875 0 15.8125 7.097656 15.8125 15.816406 0 8.722656-7.09375 15.816406-15.8125 15.816406zm0 0"/><path d="m268.242188 227.253906c0-16.972656-13.804688-30.777344-30.777344-30.777344-16.96875 0-30.777344 13.804688-30.777344 30.777344 0 16.96875 13.808594 30.777344 30.777344 30.777344 16.972656 0 30.777344-13.808594 30.777344-30.777344zm-46.589844 0c0-8.722656 7.09375-15.816406 15.816406-15.816406 8.71875 0 15.8125 7.09375 15.8125 15.816406 0 8.71875-7.09375 15.816406-15.8125 15.816406-8.722656 0-15.816406-7.097656-15.816406-15.816406zm0 0"/><path d="m303.554688 110.933594c16.96875 0 30.777343-13.808594 30.777343-30.777344 0-16.972656-13.808593-30.777344-30.777343-30.777344s-30.777344 13.804688-30.777344 30.777344c0 16.96875 13.808594 30.777344 30.777344 30.777344zm0-46.59375c8.722656 0 15.816406 7.09375 15.816406 15.816406s-7.09375 15.816406-15.816406 15.816406c-8.71875 0-15.816407-7.09375-15.816407-15.816406s7.097657-15.816406 15.816407-15.816406zm0 0"/><path d="m303.554688 184.480469c16.96875 0 30.777343-13.804688 30.777343-30.777344 0-16.96875-13.808593-30.777344-30.777343-30.777344s-30.777344 13.808594-30.777344 30.777344c0 16.972656 13.808594 30.777344 30.777344 30.777344zm0-46.59375c8.722656 0 15.816406 7.097656 15.816406 15.816406 0 8.722656-7.09375 15.816406-15.816406 15.816406-8.71875 0-15.816407-7.09375-15.816407-15.816406 0-8.71875 7.097657-15.816406 15.816407-15.816406zm0 0"/><path d="m303.554688 258.03125c16.96875 0 30.777343-13.808594 30.777343-30.777344s-13.808593-30.777344-30.777343-30.777344-30.777344 13.804688-30.777344 30.777344 13.808594 30.777344 30.777344 30.777344zm0-46.59375c8.722656 0 15.816406 7.09375 15.816406 15.816406s-7.09375 15.816406-15.816406 15.816406c-8.71875 0-15.816407-7.09375-15.816407-15.816406s7.097657-15.816406 15.816407-15.816406zm0 0"/><path d="m188.183594 350.203125c22.421875 0 40.667968-18.242187 40.667968-40.667969 0-22.425781-18.246093-40.667968-40.667968-40.667968-22.425782 0-40.667969 18.242187-40.667969 40.667968-.003906 22.425782 18.242187 40.667969 40.667969 40.667969zm0-66.375c14.171875 0 25.707031 11.53125 25.707031 25.707031 0 14.175782-11.535156 25.707032-25.707031 25.707032-14.175782 0-25.707032-11.53125-25.707032-25.707032-.003906-14.175781 11.53125-25.707031 25.707032-25.707031zm0 0"/></svg>