<svg id="Layer_1" enable-background="new 0 0 511.465 511.465" height="512" viewBox="0 0 511.465 511.465" width="512" xmlns="http://www.w3.org/2000/svg"><path d="m77.073 303.753c-3.676 3.676-5.187 8.993-3.992 14.053l18.935 80.22-87.623 87.622c-5.858 5.857-5.858 15.355 0 21.213 2.929 2.929 6.768 4.394 10.606 4.394s7.678-1.465 10.606-4.394l87.302-87.302 80.609 18.63c1.121.26 2.253.386 3.378.386 3.933 0 7.762-1.549 10.606-4.394l175.273-175.271 19.644 19.644c2.929 2.929 6.768 4.394 10.606 4.394s7.678-1.465 10.606-4.394c5.858-5.857 5.858-15.355 0-21.213l-19.644-19.644 67.52-67.519c2.813-2.813 4.394-6.628 4.394-10.606s-1.58-7.794-4.394-10.606l-44.002-44.002 22.002-22.002 36.353 36.353c2.929 2.929 6.768 4.394 10.606 4.394s7.678-1.465 10.606-4.394c5.858-5.857 5.858-15.355 0-21.213l-93.496-93.498c-5.857-5.857-15.355-5.857-21.213 0s-5.858 15.355 0 21.213l35.932 35.932-22.002 22.001-44.001-44.001c-5.857-5.857-15.355-5.857-21.213 0l-67.519 67.519-19.644-19.644c-5.858-5.857-15.356-5.856-21.213 0-5.858 5.857-5.858 15.355 0 21.213l19.644 19.644zm115.097 103.334-71.068-16.426-16.902-71.608 27.481-27.481 16.611 16.611c2.929 2.929 6.768 4.394 10.606 4.394s7.678-1.465 10.606-4.394c5.858-5.857 5.858-15.355 0-21.213l-16.611-16.611 27.828-27.828 28.548 28.547c2.929 2.929 6.768 4.394 10.606 4.394s7.678-1.465 10.606-4.394c5.858-5.857 5.858-15.355 0-21.213l-28.548-28.548 27.828-27.828 16.61 16.611c2.929 2.93 6.768 4.394 10.607 4.394s7.678-1.465 10.606-4.394c5.858-5.857 5.858-15.355 0-21.213l-16.611-16.611 22.583-22.583 88.003 88.003zm190.603-190.603-88.003-88.003 56.913-56.913 88.003 88.003z"/></svg>