<svg id="Capa_1" enable-background="new 0 0 512.003 512.003" height="512" viewBox="0 0 512.003 512.003" width="512" xmlns="http://www.w3.org/2000/svg"><g><path d="m510.404 242.162-19.157-127.34c-5.479-36.42-36.792-63.322-73.561-63.322h-323.373c-36.833 0-68.091 26.966-73.56 63.322-3.878 25.565-20.753 135.767-20.753 142.661 0 27.456 14.973 51.466 37.172 64.34-22.199 12.874-37.172 36.884-37.172 64.341 0 40.991 33.349 74.34 74.34 74.34h363.32c40.991 0 74.34-33.349 74.34-74.34 0-27.456-14.973-51.466-37.172-64.34 27.849-16.151 42.198-48.181 35.576-79.662zm-490.195 10.711 1.055-7.013c5.339-24.395 27.102-42.717 53.075-42.717h363.32c25.975 0 47.74 18.325 53.077 42.723l1.053 7.001c2.367 27.993-23.159 58.957-58.096 58.957h-355.388c-35.54-.001-60.399-31.683-58.096-58.951zm74.104-181.373h323.374c26.929 0 49.784 19.716 53.783 46.297l12.245 81.396c-12.674-10.035-28.671-16.05-46.055-16.05h-363.32c-17.384 0-33.38 6.014-46.055 16.049l12.245-81.396c4.007-26.629 26.902-46.296 53.783-46.296zm397.687 314.664c0 29.963-24.377 54.34-54.34 54.34h-363.32c-29.963 0-54.34-24.377-54.34-54.34s24.377-54.34 54.34-54.34h363.32c29.963-.001 54.34 24.376 54.34 54.34z"/><path d="m332.537 226.076h-250.019c-17.318 0-31.407 14.089-31.407 31.407s14.089 31.407 31.407 31.407h250.019c17.318 0 31.407-14.089 31.407-31.407s-14.089-31.407-31.407-31.407zm0 42.814h-250.019c-6.29 0-11.407-5.117-11.407-11.407s5.117-11.407 11.407-11.407h250.019c6.29 0 11.407 5.117 11.407 11.407s-5.117 11.407-11.407 11.407z"/><path d="m332.537 354.756h-250.019c-17.318 0-31.407 14.089-31.407 31.407s14.089 31.407 31.407 31.407h250.019c17.318 0 31.407-14.089 31.407-31.407s-14.089-31.407-31.407-31.407zm0 42.814h-250.019c-6.29 0-11.407-5.117-11.407-11.407s5.117-11.407 11.407-11.407h250.019c6.29 0 11.407 5.117 11.407 11.407s-5.117 11.407-11.407 11.407z"/><path d="m461.207 257.483c0-19.371-15.759-35.13-35.13-35.13s-35.131 15.759-35.131 35.13 15.76 35.13 35.131 35.13 35.13-15.759 35.13-35.13zm-35.13 15.13c-8.343 0-15.131-6.787-15.131-15.13s6.788-15.13 15.131-15.13 15.13 6.788 15.13 15.13c0 8.343-6.787 15.13-15.13 15.13z"/><path d="m390.946 386.164c0 19.371 15.76 35.13 35.131 35.13s35.13-15.759 35.13-35.13-15.759-35.13-35.13-35.13-35.131 15.759-35.131 35.13zm50.261 0c0 8.343-6.787 15.13-15.13 15.13s-15.131-6.787-15.131-15.13 6.788-15.13 15.131-15.13 15.13 6.787 15.13 15.13z"/><path d="m119.712 110.507h177.288c5.522 0 10-4.477 10-10s-4.478-10-10-10h-177.288c-5.523 0-10 4.477-10 10s4.477 10 10 10z"/><path d="m337 110.507h.025c5.522 0 9.987-4.477 9.987-10s-4.49-10-10.013-10-10 4.477-10 10 4.479 10 10.001 10z"/></g></svg>