<?xml version="1.0" encoding="iso-8859-1"?>
<!-- Generator: Adobe Illustrator 19.0.0, SVG Export Plug-In . SVG Version: 6.00 Build 0)  -->
<svg version="1.1" id="Capa_1" xmlns="http://www.w3.org/2000/svg" xmlns:xlink="http://www.w3.org/1999/xlink" x="0px" y="0px"
	 viewBox="0 0 512 512" style="enable-background:new 0 0 512 512;" xml:space="preserve">
<g>
	<g>
		<path d="M257.121,40.005C256.748,40.002,256.374,40,256,40c-5.522,0-10,4.477-10,10s4.478,10,10,10
			c0.296,0,0.592,0.002,0.887,0.005c0.04,0,0.08,0,0.119,0c5.469,0,9.934-4.401,9.997-9.883
			C267.067,44.599,262.644,40.07,257.121,40.005z"/>
	</g>
</g>
<g>
	<g>
		<path d="M428,194h-43v-65C385,57.869,327.131,0,256,0S127,57.869,127,129v65H84c-16.542,0-30,13.458-30,30v258
			c0,16.542,13.458,30,30,30h344c16.542,0,30-13.458,30-30V224C458,207.458,444.542,194,428,194z M438,482c0,5.514-4.486,10-10,10
			H84c-5.514,0-10-4.486-10-10V224c0-5.514,4.486-10,10-10h139c5.522,0,10-4.477,10-10s-4.478-10-10-10h-36v-65
			c0-27.764,16.557-52.718,42.181-63.575c5.085-2.154,7.461-8.023,5.307-13.109c-2.154-5.085-8.021-7.462-13.109-5.306
			C188.345,61.006,167,93.189,167,129v65h-20v-65c0-60.103,48.897-109,109-109c60.103,0,109,48.897,109,109v65h-20v-65
			c0-34.991-20.67-66.88-52.658-81.24c-5.039-2.259-10.956-0.011-13.219,5.028c-2.262,5.039-0.011,10.957,5.027,13.218
			C308.966,77.146,325,101.872,325,129v65h-32.501c-5.522,0-10,4.477-10,10s4.478,10,10,10H428c5.514,0,10,4.486,10,10V482z"/>
	</g>
</g>
<g>
	<g>
		<path d="M257.502,194h-0.252c-5.522,0-10,4.477-10,10s4.478,10,10,10h0.252c5.522,0,10-4.477,10-10S263.024,194,257.502,194z"/>
	</g>
</g>
<g>
	<g>
		<path d="M283.512,352.74C292.681,344.823,298,333.36,298,321c0-23.159-18.841-42-42-42s-42,18.841-42,42
			c0,12.506,5.672,24.362,15.141,32.274l-6.629,62.674c-0.299,2.819,0.614,5.633,2.511,7.741c1.896,2.107,4.599,3.311,7.434,3.311
			h47.795c2.835,0,5.537-1.204,7.434-3.311c1.896-2.108,2.81-4.921,2.511-7.741L283.512,352.74z M267.655,339.655
			c-3.236,2.029-5.035,5.726-4.633,9.525l6.115,57.82h-25.568l6.072-57.414c0.411-3.887-1.479-7.657-4.841-9.652
			C238.037,335.922,234,328.843,234,321c0-12.131,9.869-22,22-22s22,9.869,22,22C278,328.621,274.133,335.595,267.655,339.655z"/>
	</g>
</g>
<g>
</g>
<g>
</g>
<g>
</g>
<g>
</g>
<g>
</g>
<g>
</g>
<g>
</g>
<g>
</g>
<g>
</g>
<g>
</g>
<g>
</g>
<g>
</g>
<g>
</g>
<g>
</g>
<g>
</g>
</svg>
