<svg height="512pt" viewBox="-69 0 512 512.002" width="512pt" xmlns="http://www.w3.org/2000/svg"><path d="m359.511719 498.03125h-344.03125c-4.417969 0-8-3.582031-8-8v-16.835938c0-4.417968 3.582031-8 8-8h344.03125c4.417969 0 8 3.582032 8 8v16.835938c0 4.417969-3.582031 8-8 8zm0 0" fill="#c4c4ce"/><path d="m357.613281 465.195312h-76.675781c5.464844 0 9.894531 4.523438 9.894531 10.097657v12.640625c0 5.578125-4.429687 10.097656-9.894531 10.097656h76.675781c5.464844 0 9.898438-4.519531 9.898438-10.097656v-12.640625c0-5.574219-4.433594-10.097657-9.898438-10.097657zm0 0" fill="#aeaeb7"/><path d="m170.632812 468.980469v-99.226563c0-4.417968 3.582032-8 8-8h17.726563c4.417969 0 8 3.582032 8 8v99.226563c0 4.417969-3.582031 8-8 8h-17.726563c-4.417968 0-8-3.582031-8-8zm0 0" fill="#c4c4ce"/><path d="m196.382812 361.753906h-6.085937v115.226563h6.085937c4.40625 0 7.976563-3.574219 7.976563-7.980469v-99.269531c0-4.40625-3.570313-7.976563-7.976563-7.976563zm0 0" fill="#aeaeb7"/><path d="m219.601562 504.519531h-64.210937c-4.417969 0-8-3.582031-8-8v-29.808593c0-4.417969 3.582031-8 8-8h64.210937c4.417969 0 8 3.582031 8 8v29.808593c0 4.417969-3.582031 8-8 8zm0 0" fill="#aeaeb7"/><path d="m219.625 458.710938h-16.867188c4.40625 0 7.980469 3.570312 7.980469 7.976562v29.851562c0 4.40625-3.574219 7.980469-7.980469 7.980469h16.867188c4.40625 0 7.976562-3.574219 7.976562-7.980469v-29.851562c0-4.40625-3.570312-7.976562-7.976562-7.976562zm0 0" fill="#8f8f99"/><path d="m333.851562 384.207031h-291.339843c-11.574219 0-20.957031-9.382812-20.957031-20.957031v-334.8125c0-11.574219 9.382812-20.957031 20.957031-20.957031h291.339843c11.574219 0 20.957032 9.382812 20.957032 20.957031v334.8125c0 11.574219-9.382813 20.957031-20.957032 20.957031zm0 0" fill="#aeaeb7"/><path d="m333.90625 7.480469h-40.667969c.019531.351562.054688.699219.054688 1.054687v334.925782c0 11.542968-9.359375 20.898437-20.902344 20.898437h-250.78125c.554687 11.050781 9.660156 19.847656 20.851563 19.847656h291.445312c11.542969 0 20.902344-9.359375 20.902344-20.902343v-334.921876c0-11.542968-9.359375-20.902343-20.902344-20.902343zm0 0" fill="#8f8f99"/><g fill="#def4f8"><path d="m166.640625 103.453125h-95.648437c-12.066407 0-21.851563-9.785156-21.851563-21.855469v-2.882812c0-12.070313 9.785156-21.855469 21.851563-21.855469h95.648437c12.070313 0 21.855469 9.785156 21.855469 21.855469v2.882812c0 12.070313-9.785156 21.855469-21.855469 21.855469zm0 0"/><path d="m166.640625 177.375h-95.648437c-12.066407 0-21.851563-9.785156-21.851563-21.855469v-2.878906c0-12.070313 9.785156-21.855469 21.851563-21.855469h95.648437c12.070313 0 21.855469 9.785156 21.855469 21.855469v2.878906c0 12.070313-9.785156 21.855469-21.855469 21.855469zm0 0"/><path d="m166.640625 250.550781h-95.648437c-12.066407 0-21.851563-9.785156-21.851563-21.855469v-2.882812c0-12.070312 9.785156-21.855469 21.851563-21.855469h95.648437c12.070313 0 21.855469 9.785157 21.855469 21.855469v2.882812c0 12.070313-9.785156 21.855469-21.855469 21.855469zm0 0"/></g><path d="m260.761719 80.15625c0 12.863281-10.429688 23.292969-23.292969 23.292969-12.867188 0-23.296875-10.429688-23.296875-23.292969 0-12.867188 10.429687-23.296875 23.296875-23.296875 12.863281 0 23.292969 10.429687 23.292969 23.296875zm0 0" fill="#ffe046"/><path d="m260.761719 153.703125c0 12.867187-10.429688 23.296875-23.292969 23.296875-12.867188 0-23.296875-10.429688-23.296875-23.296875 0-12.863281 10.429687-23.296875 23.296875-23.296875 12.863281 0 23.292969 10.433594 23.292969 23.296875zm0 0" fill="#fba72d"/><path d="m260.761719 227.253906c0 12.867188-10.429688 23.296875-23.292969 23.296875-12.867188 0-23.296875-10.429687-23.296875-23.296875 0-12.867187 10.429687-23.296875 23.296875-23.296875 12.863281 0 23.292969 10.429688 23.292969 23.296875zm0 0" fill="#95dae8"/><path d="m326.851562 80.15625c0 12.863281-10.429687 23.292969-23.296874 23.292969-12.867188 0-23.296876-10.429688-23.296876-23.292969 0-12.867188 10.429688-23.296875 23.296876-23.296875 12.867187 0 23.296874 10.429687 23.296874 23.296875zm0 0" fill="#fba72d"/><path d="m326.851562 153.703125c0 12.867187-10.429687 23.296875-23.296874 23.296875-12.867188 0-23.296876-10.429688-23.296876-23.296875 0-12.863281 10.429688-23.296875 23.296876-23.296875 12.867187 0 23.296874 10.433594 23.296874 23.296875zm0 0" fill="#ffe046"/><path d="m326.851562 227.253906c0 12.867188-10.429687 23.296875-23.296874 23.296875-12.867188 0-23.296876-10.429687-23.296876-23.296875 0-12.867187 10.429688-23.296875 23.296876-23.296875 12.867187 0 23.296874 10.429688 23.296874 23.296875zm0 0" fill="#ffe046"/><path d="m166.695312 56.859375h-16.863281c12.039063 0 21.796875 9.757813 21.796875 21.796875v2.996094c0 12.039062-9.757812 21.796875-21.796875 21.796875h16.863281c12.039063 0 21.800782-9.757813 21.800782-21.796875v-2.996094c0-12.039062-9.761719-21.796875-21.800782-21.796875zm0 0" fill="#bce8f1"/><path d="m166.695312 130.78125h-16.863281c12.039063 0 21.796875 9.761719 21.796875 21.800781v2.996094c0 12.039063-9.757812 21.796875-21.796875 21.796875h16.863281c12.039063 0 21.800782-9.757812 21.800782-21.796875v-2.996094c0-12.039062-9.761719-21.800781-21.800782-21.800781zm0 0" fill="#bce8f1"/><path d="m166.695312 203.957031h-16.863281c12.039063 0 21.796875 9.757813 21.796875 21.796875v2.996094c0 12.039062-9.757812 21.800781-21.796875 21.800781h16.863281c12.039063 0 21.800782-9.761719 21.800782-21.800781v-2.996094c0-12.035156-9.761719-21.796875-21.800782-21.796875zm0 0" fill="#bce8f1"/><path d="m237.46875 56.859375c-2.976562 0-5.820312.5625-8.433594 1.578125 8.695313 3.382812 14.863282 11.828125 14.863282 21.71875s-6.167969 18.335938-14.863282 21.714844c2.617188 1.019531 5.457032 1.582031 8.433594 1.582031 12.863281 0 23.292969-10.429687 23.292969-23.296875s-10.429688-23.296875-23.292969-23.296875zm0 0" fill="#eec707"/><path d="m237.46875 130.40625c-2.976562 0-5.820312.566406-8.433594 1.582031 8.695313 3.378907 14.863282 11.824219 14.863282 21.714844 0 9.894531-6.167969 18.339844-14.863282 21.71875 2.617188 1.015625 5.457032 1.578125 8.433594 1.578125 12.863281 0 23.292969-10.429688 23.292969-23.296875 0-12.863281-10.429688-23.296875-23.292969-23.296875zm0 0" fill="#fb8723"/><path d="m237.46875 203.957031c-2.976562 0-5.820312.5625-8.433594 1.578125 8.695313 3.382813 14.863282 11.828125 14.863282 21.71875s-6.167969 18.335938-14.863282 21.714844c2.617188 1.015625 5.457032 1.582031 8.433594 1.582031 12.863281 0 23.292969-10.433593 23.292969-23.296875 0-12.867187-10.429688-23.296875-23.292969-23.296875zm0 0" fill="#7cd2e3"/><path d="m303.554688 56.859375c-2.976563 0-5.816407.5625-8.433594 1.578125 8.699218 3.382812 14.867187 11.828125 14.867187 21.71875s-6.167969 18.335938-14.867187 21.714844c2.617187 1.019531 5.457031 1.582031 8.433594 1.582031 12.867187 0 23.296874-10.429687 23.296874-23.296875s-10.429687-23.296875-23.296874-23.296875zm0 0" fill="#fb8723"/><path d="m303.554688 130.40625c-2.976563 0-5.816407.566406-8.433594 1.582031 8.699218 3.378907 14.867187 11.824219 14.867187 21.714844 0 9.894531-6.167969 18.339844-14.867187 21.71875 2.617187 1.015625 5.457031 1.578125 8.433594 1.578125 12.867187 0 23.296874-10.429688 23.296874-23.296875 0-12.863281-10.429687-23.296875-23.296874-23.296875zm0 0" fill="#eec707"/><path d="m303.554688 203.957031c-2.976563 0-5.816407.5625-8.433594 1.578125 8.699218 3.382813 14.867187 11.828125 14.867187 21.71875s-6.167969 18.335938-14.867187 21.714844c2.617187 1.015625 5.457031 1.582031 8.433594 1.582031 12.867187 0 23.296874-10.433593 23.296874-23.296875 0-12.867187-10.429687-23.296875-23.296874-23.296875zm0 0" fill="#eec707"/><path d="m221.371094 309.535156c0 18.328125-14.859375 33.1875-33.1875 33.1875-18.332032 0-33.191406-14.859375-33.191406-33.1875s14.859374-33.1875 33.191406-33.1875c18.328125 0 33.1875 14.859375 33.1875 33.1875zm0 0" fill="#def4f8"/><path d="m188.183594 276.347656c-3.039063 0-5.980469.417969-8.777344 1.179688 14.070312 3.851562 24.414062 16.714844 24.414062 32.007812 0 15.289063-10.34375 28.15625-24.414062 32.007813 2.796875.765625 5.738281 1.179687 8.777344 1.179687 18.328125 0 33.1875-14.859375 33.1875-33.1875s-14.859375-33.1875-33.1875-33.1875zm0 0" fill="#bce8f1"/><path d="m359.53125 457.714844h-127.34375c-2.804688-3.917969-7.386719-6.484375-12.566406-6.484375h-7.78125v-59.542969h44.664062c4.128906 0 7.480469-3.347656 7.480469-7.480469 0-4.128906-3.351563-7.480469-7.480469-7.480469h-214.046875c-7.398437 0-13.421875-6.019531-13.421875-13.421874v-334.921876c0-7.402343 6.023438-13.421874 13.421875-13.421874h291.449219c7.398438 0 13.421875 6.019531 13.421875 13.421874v334.921876c0 7.402343-6.023437 13.421874-13.421875 13.421874h-42.992188c-4.132812 0-7.480468 3.351563-7.480468 7.480469 0 4.132813 3.347656 7.480469 7.480468 7.480469h42.992188c15.648438 0 28.382812-12.730469 28.382812-28.382812v-334.921876c0-15.652343-12.734374-28.382812-28.382812-28.382812h-291.449219c-15.648437 0-28.382812 12.730469-28.382812 28.382812v334.921876c0 15.652343 12.734375 28.382812 28.386719 28.382812h120.691406v59.542969h-7.78125c-8.527344 0-15.460938 6.933593-15.460938 15.460937v23.863282h-124.449218c-.273438 0-.5-.226563-.5-.5v-16.878907c0-.273437.226562-.496093.5-.496093h97.417968c4.128906 0 7.480469-3.351563 7.480469-7.480469 0-4.132813-3.351563-7.480469-7.480469-7.480469h-97.417968c-8.523438 0-15.460938 6.933594-15.460938 15.460938v16.875c0 8.523437 6.9375 15.460937 15.460938 15.460937h127.34375c2.804687 3.917969 7.386718 6.488281 12.5625 6.488281h64.257812c5.175781 0 9.757812-2.570312 12.566406-6.488281h127.339844c8.527344 0 15.460938-6.9375 15.460938-15.460937v-16.875c0-8.527344-6.9375-15.464844-15.460938-15.464844zm-181.417969-66.027344h18.765625v59.542969h-18.765625zm-22.925781 105.316406c-.0625-.472656-.167969-.925781-.316406-1.363281v-28.953125c0-.273438.222656-.496094.496094-.496094h13.769531c.484375.097656.984375.148438 1.496093.148438.511719 0 1.011719-.050782 1.492188-.148438h30.742188c.484374.097656.984374.148438 1.492187.148438.511719 0 1.011719-.050782 1.496094-.148438h13.769531c.015625 0 .03125.007813.050781.007813.082031.601562.230469 1.183593.445313 1.730469v27.371093c-.214844.546875-.363282 1.125-.445313 1.726563-.019531.003906-.035156.011718-.050781.011718h-64.257812c-.0625 0-.121094-.015624-.179688-.035156zm204.84375-6.949218c0 .273437-.226562.496093-.5.496093h-124.449219v-17.871093h124.449219c.273438 0 .5.222656.5.496093zm0 0"/><path d="m70.9375 64.339844h95.757812c4.132813 0 7.480469-3.347656 7.480469-7.480469 0-4.128906-3.347656-7.480469-7.480469-7.480469h-95.757812c-16.144531 0-29.28125 13.136719-29.28125 29.28125v2.996094c0 16.144531 13.136719 29.277344 29.28125 29.277344h95.757812c16.144532 0 29.28125-13.132813 29.28125-29.277344 0-4.132812-3.347656-7.480469-7.480468-7.480469-4.132813 0-7.480469 3.347657-7.480469 7.480469 0 7.894531-6.421875 14.316406-14.316406 14.316406h-95.761719c-7.894531 0-14.316406-6.421875-14.316406-14.316406v-2.996094c-.003906-7.898437 6.421875-14.320312 14.316406-14.320312zm0 0"/><path d="m41.65625 155.578125c0 16.144531 13.136719 29.277344 29.28125 29.277344h95.757812c16.144532 0 29.28125-13.132813 29.28125-29.277344v-2.996094c0-16.144531-13.132812-29.277343-29.28125-29.277343h-95.757812c-16.144531 0-29.28125 13.132812-29.28125 29.277343zm14.960938-2.996094c0-7.894531 6.425781-14.316406 14.320312-14.316406h95.757812c7.898438 0 14.320313 6.421875 14.320313 14.316406v2.996094c0 7.894531-6.421875 14.316406-14.320313 14.316406h-95.757812c-7.894531 0-14.320312-6.421875-14.320312-14.316406zm0 0"/><path d="m41.65625 228.75c0 16.144531 13.136719 29.28125 29.28125 29.28125h95.757812c16.144532 0 29.28125-13.136719 29.28125-29.28125v-2.996094c0-16.144531-13.132812-29.277344-29.28125-29.277344h-95.757812c-16.144531 0-29.28125 13.132813-29.28125 29.277344zm14.960938-2.996094c0-7.894531 6.425781-14.316406 14.320312-14.316406h95.757812c7.898438 0 14.320313 6.421875 14.320313 14.316406v2.996094c0 7.894531-6.421875 14.320312-14.320313 14.320312h-95.757812c-7.894531 0-14.320312-6.425781-14.320312-14.320312zm0 0"/><path d="m237.46875 49.378906c-16.972656 0-30.777344 13.804688-30.777344 30.777344s13.804688 30.777344 30.777344 30.777344c16.96875 0 30.773438-13.808594 30.773438-30.777344s-13.804688-30.777344-30.773438-30.777344zm0 46.59375c-8.722656 0-15.816406-7.097656-15.816406-15.816406 0-8.722656 7.09375-15.816406 15.816406-15.816406 8.71875 0 15.8125 7.09375 15.8125 15.816406 0 8.71875-7.09375 15.816406-15.8125 15.816406zm0 0"/><path d="m237.46875 122.925781c-16.972656 0-30.777344 13.808594-30.777344 30.777344 0 16.972656 13.804688 30.777344 30.777344 30.777344 16.96875 0 30.773438-13.804688 30.773438-30.777344 0-16.96875-13.804688-30.777344-30.773438-30.777344zm0 46.59375c-8.722656 0-15.816406-7.09375-15.816406-15.816406 0-8.71875 7.09375-15.816406 15.816406-15.816406 8.71875 0 15.8125 7.097656 15.8125 15.816406 0 8.722656-7.09375 15.816406-15.8125 15.816406zm0 0"/><path d="m268.242188 227.253906c0-16.972656-13.804688-30.777344-30.777344-30.777344-16.96875 0-30.777344 13.804688-30.777344 30.777344 0 16.96875 13.808594 30.777344 30.777344 30.777344 16.972656 0 30.777344-13.808594 30.777344-30.777344zm-46.589844 0c0-8.722656 7.09375-15.816406 15.816406-15.816406 8.71875 0 15.8125 7.09375 15.8125 15.816406 0 8.71875-7.09375 15.816406-15.8125 15.816406-8.722656 0-15.816406-7.097656-15.816406-15.816406zm0 0"/><path d="m303.554688 110.933594c16.96875 0 30.777343-13.808594 30.777343-30.777344 0-16.972656-13.808593-30.777344-30.777343-30.777344s-30.777344 13.804688-30.777344 30.777344c0 16.96875 13.808594 30.777344 30.777344 30.777344zm0-46.59375c8.722656 0 15.816406 7.09375 15.816406 15.816406s-7.09375 15.816406-15.816406 15.816406c-8.71875 0-15.816407-7.09375-15.816407-15.816406s7.097657-15.816406 15.816407-15.816406zm0 0"/><path d="m303.554688 184.480469c16.96875 0 30.777343-13.804688 30.777343-30.777344 0-16.96875-13.808593-30.777344-30.777343-30.777344s-30.777344 13.808594-30.777344 30.777344c0 16.972656 13.808594 30.777344 30.777344 30.777344zm0-46.59375c8.722656 0 15.816406 7.097656 15.816406 15.816406 0 8.722656-7.09375 15.816406-15.816406 15.816406-8.71875 0-15.816407-7.09375-15.816407-15.816406 0-8.71875 7.097657-15.816406 15.816407-15.816406zm0 0"/><path d="m303.554688 258.03125c16.96875 0 30.777343-13.808594 30.777343-30.777344s-13.808593-30.777344-30.777343-30.777344-30.777344 13.804688-30.777344 30.777344 13.808594 30.777344 30.777344 30.777344zm0-46.59375c8.722656 0 15.816406 7.09375 15.816406 15.816406s-7.09375 15.816406-15.816406 15.816406c-8.71875 0-15.816407-7.09375-15.816407-15.816406s7.097657-15.816406 15.816407-15.816406zm0 0"/><path d="m188.183594 350.203125c22.421875 0 40.667968-18.242187 40.667968-40.667969 0-22.425781-18.246093-40.667968-40.667968-40.667968-22.425782 0-40.667969 18.242187-40.667969 40.667968-.003906 22.425782 18.242187 40.667969 40.667969 40.667969zm0-66.375c14.171875 0 25.707031 11.53125 25.707031 25.707031 0 14.175782-11.535156 25.707032-25.707031 25.707032-14.175782 0-25.707032-11.53125-25.707032-25.707032-.003906-14.175781 11.53125-25.707031 25.707032-25.707031zm0 0"/></svg>