<svg id="Capa_1" enable-background="new 0 0 512 512" height="512" viewBox="0 0 512 512" width="512" xmlns="http://www.w3.org/2000/svg"><path d="m303.326 404.987h-94.651c-4.142 0-7.5 3.358-7.5 7.5s3.358 7.5 7.5 7.5h94.651c4.143 0 7.5-3.358 7.5-7.5s-3.358-7.5-7.5-7.5z"/><path d="m303.326 367.99h-94.651c-4.142 0-7.5 3.358-7.5 7.5s3.358 7.5 7.5 7.5h94.651c4.143 0 7.5-3.358 7.5-7.5s-3.358-7.5-7.5-7.5z"/><path d="m437.02 74.981c-48.353-48.352-112.64-74.981-181.02-74.981-94.588 0-181.115 51.844-225.814 135.298-1.956 3.651-.581 8.197 3.07 10.152 3.65 1.957 8.196.582 10.152-3.07 42.084-78.571 123.544-127.38 212.592-127.38 64.374 0 124.894 25.068 170.413 70.587 45.519 45.52 70.587 106.04 70.587 170.413s-25.068 124.894-70.588 170.413c-45.518 45.519-106.038 70.587-170.412 70.587s-124.894-25.068-170.413-70.587-70.587-106.039-70.587-170.413c0-28.487 4.919-56.366 14.622-82.864 1.424-3.89-.574-8.197-4.464-9.621-3.892-1.426-8.197.574-9.621 4.464-10.31 28.155-15.537 57.769-15.537 88.021 0 68.38 26.628 132.667 74.98 181.02 48.353 48.351 112.64 74.98 181.02 74.98s132.667-26.629 181.02-74.98c48.352-48.352 74.98-112.64 74.98-181.02s-26.628-132.667-74.98-181.019z"/><path d="m418.117 118.544c11.804-15.916-8.291-36.029-24.215-24.215-35.385 26.246-69.099 55.326-100.205 86.434l-34.969 34.968c-24.562-1.627-45.084 18.717-43.442 43.442l-13.252 13.252c-10.473 10.473-10.473 27.513 0 37.986 10.472 10.472 27.512 10.473 37.985 0l13.251-13.251c24.577 1.631 45.084-18.73 43.444-43.443l34.969-34.968c31.106-31.108 60.187-64.821 86.434-100.205zm-188.704 181.26c-4.624 4.624-12.148 4.624-16.772 0-4.624-4.625-4.624-12.148 0-16.773l7.365-7.365c3.811 7.108 9.664 12.962 16.772 16.773zm26.587-17.543c-14.204 0-25.815-11.557-25.815-25.816 0-14.235 11.581-25.815 25.815-25.815 12.855 0 23.543 9.445 25.495 21.759.001.004.001.009.002.013 2.487 15.745-9.738 29.859-25.497 29.859zm35.994-45.038c-3.811-7.108-9.665-12.961-16.773-16.772l29.083-29.082c30.587-30.588 63.738-59.184 98.533-84.992 2.16-1.599 4.826 1.08 3.231 3.231-25.81 34.794-54.405 67.946-84.993 98.534z"/><path d="m369.87 76.069c-81.453-51.658-191.967-43.313-264.672 29.635-.002.002-.005.004-.007.006-82.793 83.078-82.842 217.519.073 300.639.063.067.119.138.184.203 40.214 40.214 93.681 62.361 150.552 62.361 56.685 0 110.028-22.022 150.202-62.011.035-.034.063-.072.097-.107 73.13-72.893 80.917-183.143 30.044-264.005-2.207-3.507-6.835-4.559-10.343-2.354-3.506 2.206-4.56 6.836-2.354 10.342 18.562 29.503 28.92 63.326 30.143 98.224h-29.776c-.962-23.908-6.866-46.824-17.589-68.222-1.855-3.703-6.357-5.202-10.065-3.345-3.703 1.855-5.2 6.362-3.345 10.065 28.416 56.711 19.65 128.704-29.045 177.115-2.941 2.925-2.95 7.688-.016 10.622l26.229 26.229c-36.654 33.871-84.005 52.448-134.183 52.448-50.196 0-97.531-18.572-134.184-52.447l26.23-26.23c2.933-2.933 2.928-7.696-.016-10.622-60.137-59.788-60.166-156.803-.563-216.668 48.402-48.613 120.503-57.588 177.616-28.671 1.086.55 2.242.81 3.382.81 2.737 0 5.376-1.504 6.697-4.114 1.871-3.695.392-8.208-3.304-10.079-21.425-10.848-44.387-16.851-68.359-17.884v-29.78c34.974 1.313 68.825 11.792 98.336 30.508 3.496 2.218 8.131 1.181 10.351-2.317 2.22-3.499 1.183-8.133-2.315-10.351zm54.087 187.932h29.779c-1.878 47.539-20.449 92.096-52.915 126.89l-21.059-21.059c26.865-29.148 42.352-66.24 44.195-105.831zm-175.457-205.762v29.776c-39.736 1.731-76.973 17.197-106.243 44.138l-21.059-21.059c34.912-32.539 79.617-51.091 127.302-52.855zm-116.263 311.593-21.058 21.059c-32.466-34.793-51.037-79.35-52.915-126.89h29.779c1.843 39.59 17.33 76.683 44.194 105.831zm-44.248-120.831h-29.781c1.646-47.613 20.066-92.314 52.413-127.273l21.056 21.056c-26.75 29.314-42.073 66.555-43.688 106.217z"/></svg>